<svg width="1440" height="809" viewBox="0 0 1440 809" fill="none" xmlns="http://www.w3.org/2000/svg">
<path opacity="0.05" fill-rule="evenodd" clip-rule="evenodd" d="M-55.2863 404.376C-124.57 440.88 -144.367 404.376 -104.337 271.668C-185.72 344.679 -226.191 406.953 -207.494 480.175C-164.164 520.546 -93.3388 501.863 -5.35648 424.346C67.8894 439.591 130.793 432.503 183.361 404.376C190.399 473.948 239.89 496.278 382.637 413.824C423.986 479.1 472.817 480.175 528.684 417.474C554.419 433.364 562.117 479.746 585.212 478.674C608.085 477.599 618.866 434.224 667.474 410.389C685.069 412.322 685.949 479.962 718.283 478.244C747.537 476.739 764.694 457.63 792.187 424.348C822.982 452.477 853.553 455.699 884.789 434.869C734.339 662.489 732.581 761.053 799.225 801.636C881.048 843.082 975.407 676.662 949.453 459.993C965.729 441.956 982.009 431.219 998.282 428.642C1026.88 494.564 1109.58 495.854 1213.62 336.521C1233.63 320.201 1259.8 317.41 1290.82 324.067C1270.14 421.986 1313.25 444.962 1389.8 408.03C1470.3 348.549 1547.5 334.16 1621.85 365.941C1642.52 355.42 1654.62 334.588 1661 306.46C1576.1 290.999 1481.96 307.749 1372.43 376.678C1338.33 392.14 1323.82 380.114 1337.01 344.897L1344.05 316.981C1349.77 289.712 1332.39 280.05 1304.9 278.543H1258.71C1244.19 278.973 1231 274.033 1219.56 264.586C1206.36 263.081 1194.48 266.517 1186.78 281.979C1186.13 290.355 1191.18 299.587 1201.74 310.11C1120.58 422.633 1069.33 451.405 1048.65 397.292C1119.92 382.261 1172.27 309.25 1126.96 278.543C1095.07 251.058 1022.48 297.226 994.327 394.929C976.512 404.378 962.874 404.378 945.278 406.527L942.417 389.132L913.382 365.941C879.511 404.38 832.221 406.097 834.861 365.941C838.38 334.374 859.716 320.417 899.087 324.067C934.936 335.234 936.918 295.937 899.087 278.543C814.404 273.821 769.313 309.68 781.412 404.38C732.583 465.578 729.064 378.611 703.108 365.941C659.778 361.003 632.506 406.097 610.948 404.38C588.952 404.38 598.192 357.351 571.357 351.984C526.268 352.199 497.893 415.545 474.358 412.968C435.426 408.672 445.984 337.81 425.529 334.588C292.241 438.949 227.134 450.33 229.554 369.377C347.889 302.166 464.68 106.54 407.714 51.5689C336.45 35.249 223.836 123.718 186.882 365.941C140.033 401.372 101.101 404.38 69.4286 390.421C173.687 314.19 271.126 60.159 169.067 2.60913C116.497 -8.55828 51.171 36.9658 -37.4673 184.275C-63.2018 259.862 -73.0992 333.514 -55.2822 404.378L-55.2863 404.376ZM9.60136 381.183C-44.5076 363.36 -25.592 185.344 92.7426 169.454C139.592 176.325 134.312 286.055 9.60136 381.183ZM241.429 324.707C261.665 220.133 286.74 152.704 323.031 166.232C349.426 179.331 322.152 231.94 241.429 324.707ZM492.614 169.454C459.622 160.436 410.133 220.131 425.968 255.348C468.859 283.261 514.389 198.442 492.614 169.454ZM915.143 476.953C821.883 593.984 789.768 701.138 832.221 724.543C865.654 729.91 910.302 643.374 915.143 476.953ZM1049.31 368.727C1063.83 317.19 1082.96 297.004 1106.94 309.032C1118.82 339.737 1096.38 357.775 1049.31 368.727Z" fill="#4749BD" stroke="#4749BD" stroke-miterlimit="22.9256" stroke-linecap="round" stroke-linejoin="round"/>
</svg>
