<svg width="1293" height="334" viewBox="0 0 1293 334" fill="none" xmlns="http://www.w3.org/2000/svg">
<g style="mix-blend-mode:multiply" opacity="0.05">
<path fill-rule="evenodd" clip-rule="evenodd" d="M109.018 279.414C61.2625 304.61 47.6171 279.414 75.2088 187.818C19.1143 238.211 -8.78116 281.193 4.1056 331.731C33.9717 359.596 82.7894 346.701 143.433 293.198C193.919 303.72 237.277 298.828 273.51 279.414C278.361 327.433 312.474 342.846 410.865 285.936C439.365 330.99 473.023 331.731 511.53 288.455C529.268 299.422 534.575 331.436 550.493 330.696C566.259 329.954 573.69 300.016 607.194 283.564C619.322 284.899 619.928 331.585 642.215 330.399C662.378 329.36 674.204 316.171 693.154 293.199C714.38 312.614 735.452 314.838 756.982 300.461C653.282 457.567 652.07 525.596 698.006 553.608C754.404 582.214 819.442 467.349 801.553 317.802C812.771 305.353 823.993 297.942 835.21 296.163C854.918 341.663 911.923 342.554 983.632 232.58C997.428 221.316 1015.47 219.389 1036.85 223.984C1022.6 291.569 1052.31 307.427 1105.07 281.936C1160.56 240.882 1213.77 230.95 1265.01 252.886C1279.26 245.625 1287.6 231.246 1292 211.832C1233.48 201.16 1168.59 212.721 1093.09 260.297C1069.6 270.969 1059.59 262.669 1068.69 238.361L1073.54 219.094C1077.48 200.272 1065.5 193.603 1046.55 192.563H1014.71C1004.71 192.86 995.613 189.45 987.727 182.93C978.632 181.891 970.446 184.263 965.138 194.934C964.685 200.716 968.171 207.088 975.448 214.351C919.505 292.015 884.18 311.874 869.93 274.525C919.05 264.151 955.133 213.757 923.902 192.563C901.919 173.592 851.888 205.458 832.483 272.894C820.204 279.416 810.804 279.416 798.675 280.899L796.703 268.893L776.691 252.886C753.344 279.417 720.749 280.602 722.568 252.886C724.994 231.098 739.7 221.465 766.837 223.984C791.547 231.692 792.913 204.569 766.837 192.563C708.468 189.304 677.388 214.054 685.728 279.417C652.071 321.656 649.646 261.631 631.755 252.886C601.889 249.478 583.091 280.602 568.232 279.417C553.071 279.417 559.44 246.957 540.943 243.253C509.865 243.401 490.307 287.124 474.085 285.345C447.251 282.38 454.528 233.47 440.429 231.246C348.557 303.277 303.681 311.132 305.349 255.258C386.914 208.868 467.414 73.8445 428.149 35.9032C379.029 24.639 301.408 85.7012 275.937 252.886C243.645 277.341 216.811 279.417 194.98 269.783C266.842 217.167 334.003 41.8322 263.657 2.11064C227.423 -5.59723 182.395 25.824 121.3 127.498C103.562 179.669 96.7399 230.504 109.021 279.416L109.018 279.414ZM153.743 263.406C116.447 251.105 129.485 128.236 211.05 117.269C243.341 122.011 239.702 197.748 153.743 263.406ZM313.535 224.426C327.482 152.248 344.766 105.708 369.78 115.045C387.973 124.086 369.174 160.397 313.535 224.426ZM486.668 117.269C463.928 111.044 429.816 152.246 440.731 176.553C470.295 195.82 501.677 137.277 486.668 117.269ZM777.904 329.508C713.623 410.284 691.487 484.242 720.749 500.397C743.793 504.101 774.567 444.373 777.904 329.508ZM870.382 254.809C880.388 219.237 893.579 205.305 910.103 213.607C918.29 234.8 902.826 247.25 870.382 254.809Z" fill="#262A5F"/>
<path fill-rule="evenodd" clip-rule="evenodd" d="M109.018 279.414C61.2625 304.61 47.6171 279.414 75.2088 187.818C19.1143 238.211 -8.78116 281.193 4.1056 331.731C33.9717 359.596 82.7894 346.701 143.433 293.198C193.919 303.72 237.277 298.828 273.51 279.414C278.361 327.433 312.474 342.846 410.865 285.936C439.365 330.99 473.023 331.731 511.53 288.455C529.268 299.422 534.575 331.436 550.493 330.696C566.259 329.954 573.69 300.016 607.194 283.564C619.322 284.899 619.928 331.585 642.215 330.399C662.378 329.36 674.204 316.171 693.154 293.199C714.38 312.614 735.452 314.838 756.982 300.461C653.282 457.567 652.07 525.596 698.006 553.608C754.404 582.214 819.442 467.349 801.553 317.802C812.771 305.353 823.993 297.942 835.21 296.163C854.918 341.663 911.923 342.554 983.632 232.58C997.428 221.316 1015.47 219.389 1036.85 223.984C1022.6 291.569 1052.31 307.427 1105.07 281.936C1160.56 240.882 1213.77 230.95 1265.01 252.886C1279.26 245.625 1287.6 231.246 1292 211.832C1233.48 201.16 1168.59 212.721 1093.09 260.297C1069.6 270.969 1059.59 262.669 1068.69 238.361L1073.54 219.094C1077.48 200.272 1065.5 193.603 1046.55 192.563H1014.71C1004.71 192.86 995.613 189.45 987.727 182.93C978.632 181.891 970.446 184.263 965.138 194.934C964.685 200.716 968.171 207.088 975.448 214.351C919.505 292.015 884.18 311.874 869.93 274.525C919.05 264.151 955.133 213.757 923.902 192.563C901.919 173.592 851.888 205.458 832.483 272.894C820.204 279.416 810.804 279.416 798.675 280.899L796.703 268.893L776.691 252.886C753.344 279.417 720.749 280.602 722.568 252.886C724.994 231.098 739.7 221.465 766.837 223.984C791.547 231.692 792.913 204.569 766.837 192.563C708.468 189.304 677.388 214.054 685.728 279.417C652.071 321.656 649.646 261.631 631.755 252.886C601.889 249.478 583.091 280.602 568.232 279.417C553.071 279.417 559.44 246.957 540.943 243.253C509.865 243.401 490.307 287.124 474.085 285.345C447.251 282.38 454.528 233.47 440.429 231.246C348.557 303.277 303.681 311.132 305.349 255.258C386.914 208.868 467.414 73.8445 428.149 35.9032C379.029 24.639 301.408 85.7012 275.937 252.886C243.645 277.341 216.811 279.417 194.98 269.783C266.842 217.167 334.003 41.8322 263.657 2.11064C227.423 -5.59723 182.395 25.824 121.3 127.498C103.562 179.669 96.7399 230.504 109.021 279.416L109.018 279.414ZM153.743 263.406C116.447 251.105 129.485 128.236 211.05 117.269C243.341 122.011 239.702 197.748 153.743 263.406ZM313.535 224.426C327.482 152.248 344.766 105.708 369.78 115.045C387.973 124.086 369.174 160.397 313.535 224.426ZM486.668 117.269C463.928 111.044 429.816 152.246 440.731 176.553C470.295 195.82 501.677 137.277 486.668 117.269ZM777.904 329.508C713.623 410.284 691.487 484.242 720.749 500.397C743.793 504.101 774.567 444.373 777.904 329.508ZM870.382 254.809C880.388 219.237 893.579 205.305 910.103 213.607C918.29 234.8 902.826 247.25 870.382 254.809Z" stroke="#4749BD" stroke-miterlimit="22.9256" stroke-linecap="round" stroke-linejoin="round"/>
</g>
</svg>
