<svg width="25" height="24" viewBox="0 0 25 24" fill="none" xmlns="http://www.w3.org/2000/svg">
<path d="M13 5.99995V11.4337L17.515 14.1424C17.7424 14.279 17.9063 14.5004 17.9705 14.7578C18.0347 15.0152 17.9941 15.2875 17.8575 15.5149C17.7209 15.7424 17.4996 15.9062 17.2422 15.9704C16.9848 16.0347 16.7124 15.994 16.485 15.8574L11.485 12.8574C11.337 12.7685 11.2146 12.6428 11.1296 12.4926C11.0446 12.3423 10.9999 12.1726 11 11.9999V5.99995C11 5.73473 11.1054 5.48037 11.2929 5.29284C11.4804 5.1053 11.7348 4.99995 12 4.99995C12.2652 4.99995 12.5196 5.1053 12.7071 5.29284C12.8946 5.48037 13 5.73473 13 5.99995ZM24.3825 3.0762C24.1998 3.0004 23.9987 2.98048 23.8047 3.01898C23.6107 3.05747 23.4324 3.15264 23.2925 3.29244L21.75 4.8387C21.3463 4.39995 20.93 3.96369 20.4875 3.51494C18.8198 1.84708 16.6976 0.707642 14.386 0.239013C12.0745 -0.229616 9.67606 -0.00665843 7.49049 0.880028C5.30491 1.76671 3.42909 3.27781 2.09742 5.2245C0.765749 7.17119 0.0372741 9.46714 0.00302079 11.8255C-0.0312325 14.1838 0.630255 16.5 1.90483 18.4845C3.1794 20.4691 5.01054 22.034 7.16944 22.9838C9.32835 23.9336 11.7193 24.2261 14.0435 23.8248C16.3677 23.4235 18.5221 22.3462 20.2375 20.7274C20.333 20.6372 20.4099 20.5289 20.4636 20.409C20.5173 20.289 20.5468 20.1596 20.5506 20.0282C20.5543 19.8968 20.5321 19.766 20.4852 19.6432C20.4384 19.5204 20.3678 19.408 20.2775 19.3124C20.1872 19.2169 20.079 19.1401 19.959 19.0864C19.8391 19.0327 19.7097 19.0031 19.5783 18.9994C19.4469 18.9957 19.3161 19.0179 19.1932 19.0647C19.0704 19.1116 18.958 19.1822 18.8625 19.2724C17.4331 20.6212 15.638 21.5189 13.7014 21.8533C11.7648 22.1877 9.77257 21.9442 7.97361 21.1529C6.17465 20.3617 4.64871 19.058 3.58641 17.4046C2.5241 15.7511 1.97254 13.8214 2.00062 11.8563C2.02869 9.89124 2.63517 7.97801 3.74428 6.35562C4.85339 4.73323 6.41596 3.47361 8.23679 2.73412C10.0576 1.99462 12.056 1.80804 13.9822 2.19768C15.9085 2.58733 17.6772 3.53591 19.0675 4.92495C19.51 5.37245 19.9263 5.81245 20.3313 6.2537L18.2925 8.29244C18.1525 8.4323 18.0571 8.61055 18.0185 8.80464C17.9798 8.99872 17.9996 9.19991 18.0754 9.38274C18.1511 9.56556 18.2794 9.72179 18.444 9.83167C18.6086 9.94154 18.8021 10.0001 19 9.99994H24C24.2652 9.99994 24.5196 9.89459 24.7071 9.70705C24.8946 9.51952 25 9.26516 25 8.99994V3.99995C25 3.80217 24.9413 3.60884 24.8314 3.44441C24.7214 3.27999 24.5652 3.15185 24.3825 3.0762Z" fill="#262A5F"/>
</svg>
