<svg width="139" height="61" viewBox="0 0 139 61" fill="none" xmlns="http://www.w3.org/2000/svg">
<g clip-path="url(#clip0_18_397)">
<path fill-rule="evenodd" clip-rule="evenodd" d="M12.4628 30.4909C7.39501 33.1597 5.94698 30.4909 8.87498 20.7886C2.92227 26.1265 -0.0379694 30.6793 1.32956 36.0326C4.49894 38.9842 9.67943 37.6182 16.1149 31.9509C21.4724 33.0655 26.0735 32.5473 29.9185 30.4909C30.4333 35.5773 34.0534 37.2099 44.4946 31.1817C47.519 35.954 51.0907 36.0326 55.1771 31.4485C57.0595 32.6102 57.6226 36.0013 59.3118 35.9229C60.9849 35.8443 61.7734 32.6732 65.3288 30.9305C66.6159 31.0718 66.6802 36.0171 69.0452 35.8914C71.185 35.7814 72.4399 34.3843 74.4509 31.9511C76.7034 34.0076 78.9396 34.2432 81.2243 32.7203C70.2197 49.3616 70.0911 56.5677 74.9657 59.5348C80.9507 62.5649 87.8525 50.3978 85.9541 34.5571C87.1446 33.2384 88.3354 32.4534 89.5257 32.265C91.6172 37.0846 97.6665 37.1789 105.276 25.53C106.74 24.3369 108.655 24.1328 110.923 24.6195C109.411 31.7784 112.564 33.4582 118.163 30.7581C124.051 26.4094 129.698 25.3574 135.136 27.681C136.649 26.9118 137.533 25.3887 138 23.3323C131.79 22.2019 124.904 23.4265 116.892 28.466C114.399 29.5964 113.337 28.7171 114.302 26.1424L114.817 24.1015C115.235 22.1078 113.964 21.4014 111.953 21.2912H108.574C107.513 21.3227 106.548 20.9615 105.711 20.2709C104.746 20.1608 103.877 20.412 103.314 21.5424C103.266 22.1548 103.636 22.8298 104.408 23.5991C98.4711 31.8257 94.7224 33.9292 93.2102 29.9731C98.4228 28.8741 102.252 23.5362 98.9378 21.2912C96.6049 19.2818 91.2956 22.6572 89.2364 29.8003C87.9333 30.4911 86.9358 30.4911 85.6487 30.6482L85.4395 29.3765L83.3158 27.681C80.8382 30.4912 77.3792 30.6167 77.5723 27.681C77.8297 25.3731 79.3904 24.3527 82.2701 24.6195C84.8923 25.436 85.0372 22.563 82.2701 21.2912C76.076 20.946 72.7779 23.5677 73.6628 30.4912C70.0912 34.9654 69.8338 28.6073 67.9353 27.681C64.7659 27.3199 62.7711 30.6167 61.1943 30.4912C59.5854 30.4912 60.2612 27.0529 58.2984 26.6606C55.0004 26.6762 52.9249 31.3075 51.2035 31.1191C48.3558 30.805 49.128 25.6242 47.6319 25.3887C37.8825 33.0185 33.1203 33.8507 33.2973 27.9321C41.9529 23.0184 50.4956 8.71602 46.3288 4.6971C41.1162 3.50395 32.8791 9.97194 30.1761 27.681C26.7493 30.2713 23.9017 30.4912 21.585 29.4707C29.2109 23.8974 36.3381 5.32513 28.873 1.11764C25.0278 0.301191 20.2496 3.62947 13.7661 14.3993C11.8838 19.9255 11.1599 25.3102 12.4631 30.4911L12.4628 30.4909ZM17.209 28.7953C13.2512 27.4922 14.6348 14.4774 23.2903 13.3157C26.7171 13.8181 26.3309 21.8404 17.209 28.7953ZM34.166 24.6663C35.6461 17.0208 37.4802 12.0911 40.1347 13.0802C42.0653 14.0378 40.0704 17.8841 34.166 24.6663ZM52.5388 13.3157C50.1256 12.6564 46.5057 17.0207 47.6639 19.5954C50.8012 21.6362 54.1315 15.435 52.5388 13.3157ZM83.4445 35.7971C76.6231 44.3532 74.274 52.1873 77.3792 53.8984C79.8247 54.2908 83.0904 47.9641 83.4445 35.7971ZM93.2582 27.8846C94.32 24.1167 95.7198 22.6409 97.4734 23.5203C98.3421 25.7651 96.7011 27.0839 93.2582 27.8846Z" fill="#4749BD" stroke="#4749BD" stroke-miterlimit="22.9256" stroke-linecap="round" stroke-linejoin="round"/>
</g>
<defs>
<clipPath id="clip0_18_397">
<rect width="139" height="61" fill="white"/>
</clipPath>
</defs>
</svg>
