<svg width="187" height="83" viewBox="0 0 187 83" fill="none" xmlns="http://www.w3.org/2000/svg">
<path fill-rule="evenodd" clip-rule="evenodd" d="M16.4789 41.4875C9.6356 45.1515 7.68022 41.4875 11.6341 28.1674C3.59577 35.4957 -0.401638 41.7462 1.44503 49.0956C5.72484 53.1478 12.7204 51.2725 21.4106 43.4919C28.6452 45.0221 34.8584 44.3108 40.0506 41.4875C40.7458 48.4706 45.6341 50.712 59.7335 42.4359C63.8176 48.9877 68.6408 49.0956 74.1589 42.8022C76.7008 44.3971 77.4611 49.0526 79.7422 48.945C82.0015 48.8371 83.0663 44.4835 87.8674 42.0911C89.6054 42.2851 89.6922 49.0743 92.8859 48.9018C95.7754 48.7507 97.47 46.8327 100.186 43.4921C103.227 46.3155 106.247 46.6389 109.332 44.5482C94.4719 67.3948 94.2982 77.2878 100.881 81.3613C108.963 85.5213 118.283 68.8174 115.719 47.0699C117.327 45.2595 118.935 44.1818 120.542 43.9231C123.366 50.5398 131.535 50.6694 141.811 34.6768C143.788 33.0388 146.373 32.7586 149.436 33.4268C147.394 43.2551 151.652 45.5612 159.213 41.8543C167.164 35.8841 174.79 34.4398 182.133 37.6298C184.175 36.5738 185.37 34.4828 186 31.6596C177.614 30.1077 168.316 31.7889 157.497 38.7075C154.129 40.2594 152.696 39.0523 153.999 35.5175L154.694 32.7156C155.259 29.9786 153.543 29.0087 150.827 28.8575H146.265C144.831 28.9006 143.528 28.4048 142.398 27.4566C141.094 27.3056 139.921 27.6504 139.161 29.2023C139.096 30.043 139.595 30.9697 140.638 32.0259C132.622 43.32 127.559 46.2079 125.517 40.7766C132.556 39.2678 137.727 31.9396 133.252 28.8575C130.102 26.0987 122.932 30.7327 120.151 40.5394C118.392 41.4877 117.045 41.4877 115.307 41.7034L115.024 39.9575L112.156 37.6298C108.811 41.4879 104.14 41.6603 104.401 37.6298C104.748 34.4613 106.856 33.0605 110.744 33.4268C114.285 34.5477 114.481 30.6034 110.744 28.8575C102.38 28.3835 97.9263 31.9827 99.1213 41.4879C94.2984 47.6305 93.9508 38.9015 91.3871 37.6298C87.1072 37.1341 84.4136 41.6603 82.2843 41.4879C80.1117 41.4879 81.0243 36.7676 78.3737 36.2289C73.9202 36.2504 71.1176 42.6086 68.793 42.3499C64.9476 41.9187 65.9904 34.8062 63.97 34.4828C50.8049 44.9577 44.3741 46.1 44.6132 37.9746C56.3014 31.2286 67.8371 11.5932 62.2104 6.07568C55.1715 4.43763 44.0484 13.3174 40.3984 37.6298C35.771 41.1861 31.9256 41.4879 28.7973 40.0869C39.0951 32.4354 48.7193 6.93789 38.6388 1.16151C33.4463 0.0406185 26.9939 4.60995 18.239 19.3956C15.6971 26.9824 14.7195 34.375 16.4793 41.4877L16.4789 41.4875ZM22.888 39.1596C17.5436 37.3707 19.4119 19.5029 31.1 17.908C35.7274 18.5977 35.206 29.6114 22.888 39.1596ZM45.7861 33.4911C47.7849 22.9947 50.2615 16.2268 53.8461 17.5847C56.4532 18.8994 53.7593 24.1799 45.7861 33.4911ZM70.5961 17.908C67.3374 17.0028 62.4493 22.9945 64.0134 26.5293C68.2498 29.331 72.7469 20.8176 70.5961 17.908ZM112.33 48.7722C103.119 60.5188 99.9467 71.274 104.14 73.6233C107.442 74.1619 111.852 65.4762 112.33 48.7722ZM125.582 37.9094C127.016 32.7365 128.906 30.7104 131.274 31.9177C132.447 34.9996 130.231 36.8102 125.582 37.9094Z" fill="white" stroke="white" stroke-width="2.66666" stroke-miterlimit="22.9256" stroke-linecap="round" stroke-linejoin="round"/>
</svg>
