<svg width="10" height="10" viewBox="0 0 10 10" fill="none" xmlns="http://www.w3.org/2000/svg">
<path d="M9.86938 7.20688C9.7858 7.84205 9.47386 8.42507 8.99183 8.84706C8.50981 9.26905 7.89065 9.50115 7.25 9.5C3.52813 9.5 0.500004 6.47188 0.500004 2.75C0.498856 2.10936 0.730951 1.4902 1.15294 1.00817C1.57493 0.526142 2.15796 0.214207 2.79313 0.130626C2.95375 0.111013 3.1164 0.143873 3.25681 0.2243C3.39722 0.304726 3.50785 0.428406 3.57219 0.576875L4.56219 2.78703V2.79266C4.61145 2.90631 4.6318 3.03039 4.62141 3.15382C4.61102 3.27725 4.57022 3.39618 4.50266 3.5C4.49422 3.51266 4.48532 3.52438 4.47594 3.53609L3.5 4.69297C3.8511 5.40641 4.59735 6.14609 5.32016 6.49813L6.4611 5.52734C6.4723 5.51793 6.48404 5.50916 6.49625 5.50109C6.59999 5.43191 6.71933 5.38968 6.84349 5.37822C6.96765 5.36676 7.09271 5.38644 7.20735 5.43547L7.21344 5.43828L9.42172 6.42781C9.57045 6.49192 9.69444 6.60246 9.77513 6.74289C9.85582 6.88332 9.88888 7.04609 9.86938 7.20688Z" fill="#4749BD"/>
</svg>
